<svg width="105" height="26" viewBox="0 0 105 26" fill="none" xmlns="http://www.w3.org/2000/svg">
<path d="M13.68 0V3.996H4.284V10.476H13.176V14.292H4.284V21.204H13.68V25.2H0V0H13.68Z" fill="#F5F6F6"/>
<path d="M17.1169 5.04H21.2929V8.784C22.3369 5.976 24.6409 4.608 27.4129 4.608C31.2289 4.608 34.3249 7.2 34.3249 12.528V25.2H30.0769V13.032C30.0769 10.188 28.7089 8.28 25.8649 8.28C22.8409 8.28 21.3649 10.44 21.3649 13.428V25.2H17.1169V5.04Z" fill="#F5F6F6"/>
<path d="M42.9702 25.632C41.5302 25.632 39.8022 25.38 37.7862 24.66V20.628C39.7302 21.456 41.6022 21.888 42.9702 21.888C44.9502 21.888 45.8502 20.916 45.8502 19.692C45.8502 18.288 44.6262 17.676 42.7182 16.812C40.1982 15.66 37.3902 14.364 37.3902 10.62C37.3902 7.056 39.9102 4.608 44.4822 4.608C45.8862 4.608 47.6142 4.824 49.5942 5.4V9.396C47.6862 8.748 45.8502 8.352 44.4822 8.352C42.5382 8.352 41.6742 9.324 41.6742 10.476C41.6742 11.808 42.8622 12.384 44.7342 13.248C47.3262 14.4 50.1342 15.768 50.1342 19.584C50.1342 23.184 47.5782 25.632 42.9702 25.632Z" fill="#F5F6F6"/>
<path d="M61.5752 25.632C55.8512 25.632 53.1512 22.212 53.1512 16.956V5.04H57.3992V17.064C57.3992 19.836 58.8032 21.708 61.6112 21.708C64.5272 21.708 65.8232 19.764 65.8232 16.956V5.04H70.0712V16.956C70.0712 22.212 67.2992 25.632 61.5752 25.632Z" fill="#F5F6F6"/>
<path d="M73.6481 5.04H77.8241V9.648C78.9401 6.552 81.2441 4.752 84.9521 4.752V9.216C84.4481 9.144 83.9081 9.108 83.4401 9.108C79.8401 9.108 77.8961 11.268 77.8961 15.552V25.2H73.6481V5.04Z" fill="#F5F6F6"/>
<path d="M96.5258 25.632C89.7579 25.632 85.6178 21.204 85.6178 15.12C85.6178 9.144 89.5418 4.608 95.5898 4.608C101.602 4.608 104.986 9.144 104.986 14.4C104.986 15.264 104.914 16.056 104.806 16.74H90.0458C90.3698 19.44 92.6018 21.816 96.8498 21.816C99.0098 21.816 101.206 21.168 103.438 19.872V24.012C101.134 25.128 98.7579 25.632 96.5258 25.632ZM90.0458 13.536H100.702C100.522 10.548 98.9018 8.316 95.5178 8.316C92.0258 8.316 90.2618 10.692 90.0458 13.536Z" fill="#F5F6F6"/>
</svg>
